<?xml version="1.0" encoding="UTF-8"?>
<svg id="_레이어_1" data-name="레이어_1" xmlns="http://www.w3.org/2000/svg" viewBox="0 0 98.59 71.7">
  <defs>
    <style>
      .cls-1 {
        fill: #2f318d;
      }

      .cls-2 {
        fill: #2f318e;
      }
    </style>
  </defs>
  <path class="cls-1" d="M81.87,0c.05.37.03.73.04,1.08-.03.04-.05.05-.08.05-.55-.03-1.06.13-1.59.25-.43.1-.86.17-1.3.17-.4,0-.78.15-1.17.2-.49.06-.92.31-1.38.47-.2.07-.4.15-.6.21-.35.11-.68.27-.99.47-.19.13-.38.25-.58.36-.62.34-1.08.84-1.49,1.4-.16.23-.28.49-.42.74-.24.42-.49.85-.74,1.26-.08.13-.11.25-.1.4.02.4.03.81.04,1.21,0,.03.01.06-.03.09-.35.01-.72.03-1.1.04-.01-.25-.03-.48-.04-.72-.01-.33-.01-.67-.02-1,0-.1.03-.19.08-.28.46-.76.9-1.54,1.34-2.31.16-.27.36-.52.59-.74.06-.05.11-.11.17-.16.37-.41.81-.73,1.28-1,.31-.18.62-.36.93-.55.15-.09.32-.14.49-.2.54-.19,1.08-.38,1.6-.62.24-.11.51-.12.76-.18.33-.08.66-.14,1-.2.07-.01.14-.02.21-.02.43,0,.85-.05,1.26-.15.36-.09.72-.16,1.08-.24.03,0,.05-.01.07-.04h.68Z"/>
  <path class="cls-1" d="M38.46,28.68h-1.38c-.06-.07-.03-.16-.03-.23,0-.85,0-1.7,0-2.55,0-.22-.02-.44-.11-.64-.12-.28-.32-.47-.63-.5-.32-.03-.58.09-.77.35-.18.25-.24.54-.25.84,0,.28,0,.55,0,.83,0,.56,0,1.12,0,1.68,0,.07.02.14-.02.22h-1.37c-.06-.07-.03-.15-.03-.23,0-.86,0-1.71,0-2.57,0-.21-.02-.41-.1-.6-.11-.29-.31-.48-.62-.52-.32-.04-.59.07-.78.33-.18.24-.26.52-.26.81-.01.84,0,1.69,0,2.53,0,.08,0,.15,0,.24h-1.39v-5.07h1.38v.69c.38-.6.91-.86,1.6-.83.71.03,1.15.44,1.42,1.06.07-.05.07-.12.1-.17.29-.56.75-.85,1.37-.89.28-.02.55,0,.81.11.44.19.72.52.89.95.15.37.2.75.2,1.14,0,.96,0,1.93,0,2.89,0,.03,0,.06,0,.11Z"/>
  <path class="cls-1" d="M5.25,22.49c-.31.34-.61.68-.91,1.01-.14-.11-.26-.23-.4-.32-.44-.31-.92-.45-1.46-.35-.2.04-.38.12-.53.25-.27.24-.33.76.12.98.26.12.53.2.8.27.47.12.94.27,1.37.51.44.25.81.58.96,1.08.29.97-.05,2.02-1.06,2.56-.59.31-1.22.39-1.87.32-.85-.09-1.57-.44-2.18-1.03-.02-.02-.05-.05-.08-.09.31-.34.62-.68.94-1.02.1.09.18.17.27.24.55.45,1.18.62,1.88.49.15-.03.3-.09.42-.19.37-.27.45-.91-.06-1.19-.34-.18-.71-.28-1.08-.37-.4-.11-.79-.24-1.16-.45-1.23-.7-1.18-2.16-.46-2.95.36-.4.82-.65,1.35-.75,1.16-.23,2.17.09,3.04.87.04.03.08.06.1.13Z"/>
  <path class="cls-1" d="M5.25,31.42c-.3.34-.61.68-.92,1.02-.19-.18-.38-.35-.61-.47-.41-.22-.83-.31-1.29-.2-.2.05-.39.14-.53.29-.21.23-.26.71.15.92.26.13.54.2.82.28.44.12.87.25,1.27.46.28.15.53.33.74.57.26.31.39.66.41,1.07.03.6-.13,1.13-.54,1.58-.36.4-.82.64-1.33.74-1.23.24-2.33-.06-3.27-.9-.05-.05-.11-.09-.14-.17.31-.33.61-.67.93-1.02.23.21.45.41.72.54.45.23.93.29,1.42.19.14-.03.27-.09.39-.16.38-.22.54-.9,0-1.21-.28-.16-.58-.25-.89-.33-.42-.11-.85-.22-1.24-.43-.37-.2-.69-.45-.88-.83-.35-.67-.24-1.55.26-2.15.42-.49.97-.75,1.6-.83,1.08-.15,2.01.18,2.81.9.04.04.09.07.11.14Z"/>
  <path class="cls-1" d="M9.52,32.53h1.38c.05.08.03.16.03.23,0,.83,0,1.66,0,2.49,0,.18,0,.37.06.55.19.67,1.02.9,1.54.42.31-.29.4-.66.41-1.06,0-.8,0-1.6,0-2.4,0-.07-.01-.14.02-.22h1.38v5.07h-1.38c-.04-.23,0-.47-.02-.71-.06,0-.07.06-.1.1-.3.44-.71.67-1.23.73-.33.04-.65.01-.96-.1-.41-.16-.7-.45-.88-.84-.19-.39-.24-.81-.24-1.24,0-.97,0-1.94,0-2.91,0-.03,0-.05,0-.1Z"/>
  <path class="cls-1" d="M8.93,36.34v1.28c-.59.18-1.18.21-1.75-.08-.5-.26-.72-.72-.8-1.26-.03-.2-.04-.39-.04-.59,0-.61,0-1.22,0-1.83,0-.07,0-.14,0-.22h-.83v-1.11h.83v-1.26h1.4v1.25h1.18v1.1h-1.13c-.07.06-.05.12-.05.18,0,.62,0,1.25,0,1.87,0,.08.02.15.02.23.02.31.23.49.57.5.19,0,.38-.03.59-.07Z"/>
  <path class="cls-1" d="M90.76,52.58c-.06-.03-.1-.05-.14-.06-.37-.15-.71-.34-.95-.68-.16-.22-.4-.3-.64-.38-.57-.19-1.14-.38-1.71-.56-.23-.07-.43-.17-.61-.32-.06-.05-.12-.09-.18-.14-.02,0-.04,0-.05,0-.17.15-.36.19-.59.12-.23-.06-.47-.07-.73-.17.11-.35.22-.71.32-1.05.03,0,.04-.02.05-.02.25.1.48.1.7-.1.17-.15.39-.24.61-.37.13.2.25.39.38.58.18.28.42.46.74.57.32.11.65.18.99.22.26.03.49.17.73.26.39.14.69.4.95.72.06.07.13.12.22.16.22.1.45.21.67.31.09.04.17.09.19.2.01.09.08.14.16.18.07.03.12.07.19.09.49.14.92.4,1.36.63.22.11.44.13.68.1.19-.02.38-.03.58-.03.04.37.09.73.13,1.08-.07.06-.14.06-.21.06-.26,0-.52.02-.78.04-.3.03-.57-.1-.83-.21-.17-.07-.33-.16-.49-.25-.42-.25-.91-.35-1.33-.59-.04-.02-.08-.04-.11-.06-.15-.07-.29-.16-.3-.35Z"/>
  <path class="cls-2" d="M45.08,21.56h1.39c.03.18.03,6.91,0,7.1-.18.04-1.22.04-1.4,0v-7.09Z"/>
  <path class="cls-1" d="M80.54,25.05c.2.31.39.62.58.93-.03.08-.1.1-.15.13-.22.14-.44.29-.67.42-.25.14-.45.34-.66.53-.06.05-.1.12-.11.2-.03.18-.07.36-.11.54.04.08.12.1.18.14.29.19.58.37.78.67.11.16.27.27.42.39.24.18.43.41.62.64.05.05.06.11.07.17,0,.06,0,.13,0,.19.14.51-.15.88-.4,1.26-.19.28-.42.53-.73.7-.14.07-.22.21-.31.34-.35-.12-.69-.24-1.04-.36.02-.16.08-.29.18-.41.19-.24.41-.45.67-.61.23-.15.37-.39.5-.62.04-.07.01-.14-.04-.19-.11-.12-.23-.23-.36-.33-.21-.16-.39-.35-.55-.55-.11-.14-.27-.23-.42-.32-.24-.15-.48-.3-.72-.44-.04-.46.01-.9.12-1.33.02-.09.06-.18.06-.27.01-.24.16-.39.31-.55.49-.5,1.09-.85,1.68-1.21.02-.01.05-.02.08-.04Z"/>
  <path class="cls-1" d="M18.52,28.68h-1.39v-5.07h1.39v.69c.44-.69,1.04-.98,1.86-.77v1.34c-.2-.03-.39-.08-.59-.08-.69,0-1.05.42-1.18.95-.06.25-.08.5-.08.76,0,.65,0,1.3,0,1.95v.23Z"/>
  <path class="cls-1" d="M66.78,29.18c.03.35.02.72.03,1.09-.36,0-.69.06-1.03-.09-.43-.18-.75-.47-1.09-.76-.18-.15-.35-.33-.53-.5-.22.05-.43.1-.67.15-.07-.46-.14-.92-.22-1.37-.12-.7-.04-1.38.1-2.06.02-.08.05-.15.09-.22.14-.25.27-.51.44-.75.13-.19.09-.41.14-.61.03-.14.04-.28.06-.44.38.05.74.09,1.12.14-.04.36-.08.7-.12,1.04-.01.11-.04.22-.12.31-.05.07-.09.14-.14.21-.25.35-.4.74-.46,1.17-.04.34-.03.68.01,1.01,0,.07.02.15.09.2.5.36.9.84,1.39,1.21.06.05.12.1.19.13.16.07.31.12.49.09.07,0,.14-.04.22.02Z"/>
  <path class="cls-2" d="M20.98,37.6v-5.07h1.38v5.07h-1.38Z"/>
  <path class="cls-2" d="M26.7,26.62v-1.19c.15-.04,2.64-.06,3.13-.02v1.21h-3.13Z"/>
  <path class="cls-2" d="M20.85,30.96c-.03-.46.35-.82.84-.81.47,0,.83.36.83.82,0,.47-.36.82-.84.82-.5,0-.86-.39-.82-.83Z"/>
  <path class="cls-1" d="M98.38,47.4c0-.11,0-.23,0-.34-.08-.76-.16-1.52-.25-2.28-.04-.31-.05-.63-.21-.92-.09-.17-.14-.37-.21-.56-.13-.39-.23-.79-.44-1.14-.05-.08-.06-.16-.06-.24-.02-.17-.04-.34-.04-.51-.03-.69-.16-1.38-.27-2.06-.09-.53-.26-1.04-.54-1.51-.17-.29-.35-.58-.46-.91-.1-.3-.25-.57-.47-.8-.03-.04-.06-.08-.08-.12-.14-.3-.37-.51-.65-.67-.08-.04-.16-.09-.24-.14-.25-.19-.53-.25-.84-.23-.2,0-.39,0-.59-.05-.52-.17-1.05-.33-1.58-.49-.11-.03-.22-.05-.33-.04-.68.03-1.36.03-2.04-.05-.3-.03-.6-.11-.91-.02-.14.04-.29.07-.43.1-.45.1-.89.2-1.33.3-.28-.3-.59-.53-.89-.77-.17-.13-.32-.18-.52-.09-.21.1-.45.12-.68.11-.77-.03-1.53,0-2.28.16-.22.04-.45.08-.68.05-.27-.04-.55-.07-.82-.11-.29-.03-.59-.1-.88-.1-1.16,0-2.33,0-3.49,0-.22,0-.44.03-.64.12-.34.14-.68.27-1.05.33-.52.09-1.02.29-1.57.24-.09,0-.14.05-.2.11-.51.51-1.03,1.02-1.54,1.52-.1.1-.14.2-.14.33,0,1.18,0,2.35,0,3.53,0,.39.04.77.15,1.15.11.37.2.75.16,1.15-.03.33.06.64.18.95.22.57.46,1.14.6,1.74.04.16.08.31.16.46.31.65.62,1.3.94,1.95.12.25.23.52.4.75.33.46.66.92.99,1.38.03.04.06.1.13.12.45-.08.91-.17,1.37-.24.29-.05.57-.12.86-.12,1.26,0,2.51,0,3.77,0,.12,0,.24,0,.36.03.26.04.52.07.77.12.16.03.34.02.49.1,0,.06,0,.11,0,.16-.02.11.01.19.08.27.13.15.23.32.36.47.16.18.31.4.56.46.48.12.92.33,1.35.55.38.2.76.21,1.18.08-.12-.25-.24-.49-.35-.72-.04,0-.07-.01-.1-.01-.34-.02-.67-.09-.95-.31-.12-.09-.27-.14-.37-.25-.2-.22-.38-.45-.57-.67.02-.11.1-.17.16-.23.35-.36.71-.72,1.05-1.08.2-.21.42-.38.69-.52.44-.22.83-.52,1.24-.77.34-.21.7-.38,1.08-.47.19-.05.38-.1.56-.14.02-.06,0-.11-.01-.16-.08-.22-.08-.44.02-.66.1-.24.03-.48,0-.72-.38.04-.74.07-1.11.1,0,.1.02.16.02.23,0,.23-.05.32-.26.4-.42.16-.82.35-1.17.63-.26.2-.53.28-.83.13-.01,0-.03,0-.05,0-.09.16-.09.36-.2.53-.12-.08-.2-.19-.32-.26-.1.11-.2.2-.33.28-.14.09-.22.21-.22.37.05.07.16.03.19.09-.23.23-.46.45-.66.65.01-.06-.06-.06-.11-.06-.16,0-.31-.05-.46-.1-.16-.05-.32-.11-.48-.15-.11-.03-.21-.08-.31-.14-.33-.21-.65-.45-1.01-.62-.03-.09-.05-.18-.08-.27-.06-.18-.01-.31.11-.44.14-.14.26-.3.38-.46.08-.11.18-.17.31-.21.44-.14.83-.38,1.17-.7.11-.1.21-.21.33-.3.3-.23.59-.48.98-.57.14-.03.28-.1.41-.16.3-.14.59-.3.92-.38.28-.07.55-.17.83-.26.49-.15.93-.37,1.31-.71.19-.17.41-.32.63-.49-.23-.3-.46-.6-.69-.9-.29.22-.56.42-.82.63-.16.13-.34.23-.53.3-.32.11-.64.23-.97.31-.29.08-.56.18-.83.32-.11.06-.22.12-.34.15-.24-.19-.56-.19-.77-.42-.23.32-.45.62-.67.91.05.05.1.09.16.14-.31.18-.54.45-.8.67-.19.17-.36.18-.56.02-.25-.19-.5-.38-.63-.69-.04-.1-.11-.2-.17-.29-.12-.18-.14-.38-.07-.58.05-.15.1-.29.14-.44.02-.06.03-.11.07-.15.33-.29.54-.67.79-1.02.05-.06.1-.12.17-.16.51-.28,1.01-.57,1.54-.81.25-.11.49-.24.77-.29.98-.17,1.97-.31,2.93-.58.05-.01.1-.01.14-.04.34-.23.67-.47,1.01-.71-.22-.32-.44-.62-.66-.93-.26.18-.5.35-.73.51-.08.05-.16.09-.25.11-.69.19-1.4.29-2.1.41-.29.05-.59.07-.87.18-.4.15-.81.3-1.18.52-.03.02-.07.06-.12.02-.03-.13-.13-.27-.09-.42.06-.22.09-.44.13-.67.02-.1.06-.18.16-.23.25-.14.48-.29.73-.43.55-.3,1.11-.57,1.63-.92.29-.19.6-.35.93-.46.33-.11.64-.27.98-.35.5-.12.99-.23,1.49-.34.12-.03.23-.07.35-.05.22.02.44.03.66.06.56.07,1.13.08,1.69.03.12,0,.24,0,.36.04.34.11.67.21,1.01.32.43.14.86.28,1.33.23.03,0,.06,0,.09,0,.04,0,.08.02.12.04.24.15.49.28.62.56.05.1.14.18.21.27.05.06.1.12.12.2.13.38.33.74.53,1.08.23.39.37.81.47,1.24.07.29.06.59.12.88.13.6.14,1.21.2,1.81.01.14.04.26.11.38.14.23.24.48.32.74.08.26.15.53.26.78.16.35.21.71.25,1.09.04.35.09.7.11,1.05.04.51.14,1.02.1,1.54,0,.05-.01.11.01.15.13.22.24.45.39.66.32-.08.64-.15.96-.23v-.09c-.11-.28-.22-.56-.21-.87ZM81.1,39.97c-.15.07-.25.17-.34.31-.07.12-.15.22-.22.34-.18.28-.39.54-.63.77-.09.09-.16.19-.19.32-.05.18-.09.37-.17.55-.17.38-.11.76-.07,1.14,0,.08.05.13.08.19.17.3.36.59.52.9.09.16.2.29.36.38.07.04.14.07.19.14,0,.07-.05.1-.08.14-.11.14-.22.28-.34.41-.22.24-.36.51-.44.83-.03.11-.03.21-.02.31.07.45.23.87.41,1.29.23.11.51.12.74.33-.32,0-.6,0-.88,0-1.07,0-2.14-.01-3.21,0-.33,0-.66.1-.99.15-.2.03-.39.07-.59.1-.05-.01-.07-.06-.1-.1-.2-.27-.4-.53-.58-.81-.19-.28-.3-.59-.45-.89-.26-.52-.51-1.04-.76-1.56-.1-.2-.14-.41-.19-.63-.14-.53-.36-1.04-.55-1.56-.08-.21-.14-.41-.12-.64.05-.5-.12-.96-.23-1.44-.04-.19-.07-.37-.07-.57,0-1.01,0-2.03,0-3.08.23.17.44.32.63.48.11.09.21.12.35.11.24,0,.48,0,.72,0,.44-.02.88.05,1.31.11.22.03.45.04.68.05.65.01,1.31.02,1.96,0,.39,0,.78.05,1.16-.02.14-.03.28,0,.42.02.47.03.95,0,1.42.02.08,0,.15-.02.23.01,0,.15.01.3,0,.45-.02.14,0,.26.05.39.08.17.15.35.23.52.05.11.09.22.1.35-.11.06-.21.13-.33.18ZM83.5,36.1c-.07,0-.04-.07-.07-.11-.22-.04-.46,0-.68.04-.41.08-.81.09-1.22,0-.18-.04-.35-.01-.53,0-.22.02-.44.07-.65.06-.56-.02-1.11.14-1.67.03-.19-.04-.38-.03-.57,0-.3.06-.61.04-.91.01-.21-.02-.42-.02-.64-.04-.1-.01-.19.02-.28.07-.31.15-.61.29-.92.44-.08.04-.16.06-.24.06-.26,0-.51,0-.78,0-.03.08-.1.12-.2.11-.13-.01-.25,0-.38-.01-.15,0-.31.05-.44-.03-.19-.12-.37-.26-.53-.41.01-.02.02-.02.02-.03.14-.14.27-.3.42-.42.16-.12.38-.08.57-.13.43-.1.86-.19,1.28-.28.27-.05.51-.17.76-.27.11-.04.21-.07.33-.07.52-.02,1.05,0,1.57,0,.59,0,1.18,0,1.76-.01.21,0,.42.04.63.06.39.05.77.1,1.16.15.26.04.51,0,.76-.04.83-.16,1.66-.2,2.49-.17.17,0,.34,0,.5-.06.07,0,.1.06.17.11-.63.23-1.14.65-1.71.95Z"/>
  <path class="cls-1" d="M95.4,60.4h-.15c-.87,0-1.73,0-2.6,0-.18,0-.35-.02-.53-.04-.55-.07-1.11-.12-1.67-.19-.57-.07-1.13-.03-1.7-.03-.36,0-.72-.03-1.08-.08-.31-.04-.62-.06-.93-.01-.16.02-.31.06-.43.17-.07.07-.15.09-.25.09-.33,0-.65-.03-.98-.03-1.07,0-2.14.02-3.21.03-1.06.01-2.12-.03-3.18-.1-.18-.01-.37-.05-.55-.06-.3-.03-.6-.1-.91-.1-1.17,0-2.34-.01-3.51-.02-.21,0-.41,0-.62,0-.13,0-.25-.02-.38-.04-.41-.07-.82-.18-1.24-.14-.03,0-.07,0-.11,0-.01-.03-.02-.06-.03-.08-.32-1.02-.64-2.03-.94-3.06-.09-.31-.16-.63-.31-.92-.42-.82-.84-1.64-1.26-2.45-.13-.25-.25-.51-.41-.74-.42-.6-.85-1.2-1.24-1.83-.68-1.09-1.34-2.18-1.99-3.28-.8-1.36-1.59-2.74-2.4-4.14-.77-.04-1.54-.09-2.31-.11-.65-.02-1.3.05-1.95.02-.68-.03-1.36-.04-2.04-.07-.21,0-.42-.04-.63-.06-.43-.05-.85-.15-1.29-.13-.42.02-.85.02-1.27.03-.29,0-.58.05-.87.02-.49-.04-.97-.08-1.46-.1-.52-.02-1.03.03-1.55.05-.42.01-.84.02-1.27-.05-.52-.09-1.04-.18-1.58-.15-.78.04-1.57.03-2.36.04-1.13.01-2.25.07-3.38,0-.9-.05-1.81-.1-2.71-.15-.63-.03-1.25-.11-1.88-.17-.23-.02-.45-.02-.68,0-.56.05-1.11.13-1.67.12-.56,0-1.12,0-1.68,0-.1,0-.19.01-.29.05-.74.29-1.48.57-2.21.86-.09.03-.19.05-.26.13.27.48.54.95.82,1.42.06.11.09.21.09.34,0,.77,0,1.54,0,2.32,0,.11.01.22.04.33.18.69.39,1.37.58,2.06.17.6.38,1.18.72,1.71.16.25.27.54.39.83-.4.23-.77.49-1.16.73-.12.08-.23.17-.31.29-.19.27-.4.52-.65.73-.18.15-.36.3-.53.46-.29.29-.63.53-.84.89-.25.42-.52.83-.64,1.31-.07.31-.04.59.18.83.11.12.21.25.33.36.33.29.73.46,1.09.7.05.03.09.02.14.02.31-.04.62-.07.93-.1.05,0,.11-.02.17.02-.03.08-.11.12-.16.17-.05.06-.13.1-.16.17-.2.4-.4.8-.58,1.18.34.74.87,1.3,1.42,1.85.51-.05.99-.25,1.53-.16-.29.24-.56.45-.83.67.08.57.17,1.13.25,1.69.01.08.06.12.12.17.17.13.34.25.51.38.31.23.62.46.93.69.14-.08.27-.16.41-.25.32.71.74,1.35,1.28,1.91.41-.03.82-.07,1.24-.08.54-.01,1.08-.03,1.61-.09.32-.04.63-.06.95-.12.35-.06.69-.14,1.05-.16.35-.02.69-.04,1.04-.06.17-.01.34-.02.54-.03-.13.08-.23.15-.35.23.24.37.44.76.7,1.1.53.68,1.06,1.34,1.59,2.02.07.09.15.14.27.14.16,0,.31.02.46.04.8.1,1.61.15,2.41.19.57.03,1.13.09,1.69.15.69.07,1.37.22,2.06.26.55.04,1.1.11,1.65.11,1.3,0,2.6,0,3.89,0,.1,0,.2,0,.3,0,.45.04.9.08,1.35.12.44.04.87.08,1.31.12.51.04,1.03.09,1.54.12.62.03,1.23.03,1.85.07.37.02.75.03,1.1.19.05.03.11.02.17,0,.5-.09,1-.18,1.5-.28.45-.09.9-.16,1.37-.13.89.04,1.77-.07,2.65-.14.92-.08,1.83-.19,2.75-.28.96-.1,1.91-.2,2.87-.3.2-.02.39-.04.57-.05.09.06.05.16.12.21.04.01.08,0,.11-.01.51-.15,1.01-.31,1.53-.45.55-.15,1.1-.32,1.59-.62.09-.05.18-.07.28-.09.62-.12,1.25-.24,1.87-.36.49-.09.97-.19,1.42-.42.23-.12.48-.2.72-.31,1.66-.71,3.34-1.35,4.99-2.08.23-.1.45-.21.69-.28.5-.14.99-.27,1.49-.41.36-.09.7-.21,1.02-.39.56-.32,1.13-.62,1.69-.93.1-.05.19-.12.27-.2.58-.58,1.15-1.15,1.74-1.71.22-.2.41-.42.63-.65-.14-.46-.29-.94-.44-1.41ZM73.69,69.56c-1.02.11-2.04.2-3.06.31-.75.08-1.51.13-2.26.21-.68.07-1.36.08-2.04.07-.39,0-.76.1-1.13.16-.36.06-.71.12-1.07.19-.09.02-.18.02-.27,0-.55-.12-1.11-.15-1.67-.17-.88-.03-1.75-.05-2.63-.14-.58-.06-1.17-.1-1.76-.15-.38-.03-.76-.07-1.14-.1-.07,0-.14,0-.21,0-1.3,0-2.61.01-3.91,0-.86-.01-1.72-.08-2.58-.21-.64-.1-1.29-.17-1.94-.23-.79-.07-1.58-.11-2.37-.17-.3-.02-.61-.06-.91-.09-.1,0-.17-.05-.23-.13-.42-.54-.85-1.06-1.26-1.6-.25-.33-.44-.69-.66-1.05.15-.09.29-.17.46-.26-.18-.33-.36-.65-.54-.98-.18.07-.35.16-.49.26-.3.21-.63.26-.98.28-.39.02-.78.04-1.16.08-.25.03-.49.09-.73.13-.36.05-.72.09-1.07.13-.67.08-1.34.04-2.01.11-.14-.14-.25-.27-.35-.45.26-.18.51-.35.77-.52-.22-.39-.44-.76-.65-1.14-.03-.06-.08-.1-.14-.12-.24-.1-.47-.19-.71-.29-.35.21-.7.43-1.06.64-.16-.12-.32-.24-.48-.35-.06-.04-.08-.1-.09-.16-.02-.18-.07-.36-.07-.57.22-.18.45-.37.69-.55.1-.07.15-.16.18-.27.09-.31.18-.62.28-.93,0-.03.01-.07.02-.11-.19-.11-.4-.16-.59-.25-.31-.15-.64-.19-.99-.19-.38,0-.75.01-1.11.11-.22-.21-.42-.41-.54-.67.09-.36.33-.6.6-.83.18-.16.36-.32.56-.5-.14-.36-.28-.73-.42-1.11-.39-.07-.77-.16-1.16-.21-.19-.02-.4.02-.59.05-.21.04-.4.01-.58-.12-.18-.13-.39-.21-.52-.42.25-.49.48-.99.93-1.36.28-.23.55-.49.83-.73.17-.15.33-.31.46-.5.14-.2.32-.35.52-.48.58-.36,1.16-.73,1.74-1.11.28-.18.55-.37.81-.58.43-.34.9-.62,1.38-.86.3-.15.64-.22.97-.29.55-.11,1.11-.15,1.66-.22.29-.04.59-.09.88-.15.06-.01.13-.03.19-.01.17.06.34.04.5,0,.22-.04.43-.02.64.05.43.16.89.23,1.33.35.03,0,.06.01.08,0,.38-.07.6.19.85.38.12.09.13.26.19.4.02.06-.02.12-.06.17-.16.21-.29.44-.35.7-.58.11-1.15.26-1.75.21-.19-.02-.38-.02-.57-.05-.08-.01-.16,0-.23.03-.6.31-1.27.37-1.92.49-.23.04-.44.09-.63.24-.21.17-.47.25-.72.34-.46.18-.9.41-1.31.69-.06.04-.12.07-.19.11-.17-.14-.28-.32-.45-.48-.28.24-.56.48-.86.74.34.39.68.78,1.02,1.18.15-.12.29-.24.42-.35.09.01.11.09.18.12.47-.39,1.03-.63,1.56-.93.04-.02.09-.03.14-.04.23-.06.45-.14.63-.29.19-.15.41-.21.64-.25.34-.06.68-.12,1.02-.18.13-.02.25-.07.36-.12.26-.13.52-.16.8-.12.4.05.81.02,1.2-.06.12-.02.24-.04.35-.07.17-.04.33-.04.49.04.17.08.35.1.53.05.25-.07.51-.09.77,0,.27.09.54.05.81,0,.15-.03.31-.04.46-.09.31-.1.56.04.81.18.04.03.08.06.12.09.26.15.27.39.24.64-.04.33-.26.57-.43.85-.33,0-.64-.05-.96-.06-.18-.01-.35,0-.53.02-.58.07-1.16.17-1.74.29-.42.09-.84.2-1.25.34-.18.06-.35.16-.51.26-.25.16-.52.24-.81.29-.8.14-1.6.29-2.4.43-.09.02-.16.05-.24.09-.27.15-.55.29-.83.44-.08-.17-.07-.35-.12-.54-.37.04-.73.13-1.12.19.09.36.08.73.27,1.07.1.19.2.38.29.57.04.08.1.13.17.18.31.23.66.3,1.03.37.05,0,.11.02.19-.01.05-.32.1-.64.15-.96.35-.3.78-.35,1.19-.42.72-.13,1.45-.26,2.17-.39.06-.01.12-.04.18-.07.12-.07.23-.13.35-.2.24-.15.5-.25.77-.33.76-.21,1.53-.33,2.31-.46.39-.06.78.01,1.16.02.63.02,1.21.24,1.78.52.3.15.61.26.93.39.04.07.04.15.07.24-.44.22-.86.45-1.3.64-.23.1-.46.19-.68.29-.15.07-.3.11-.47.06-.13-.04-.27-.03-.4-.03-.68,0-1.36,0-2.04,0-.39,0-.77.1-1.15.18-.15.03-.28.13-.42.2-.39.2-.79.39-1.2.53-.1.04-.2.08-.29.13-.32.17-.66.29-1,.41-.12.04-.21.04-.31-.05-.07-.07-.15-.12-.25-.19-.23.3-.46.59-.68.86,0,.08.07.08.08.13-.02.03-.04.07-.06.11.24.28.49.55.74.84.18-.16.35-.3.52-.45.08-.07.17-.12.27-.16.41-.14.83-.28,1.21-.5.09-.05.18-.08.28-.11.44-.15.86-.37,1.27-.58.29-.15.61-.2.92-.21.72-.02,1.43-.01,2.15,0,.32,0,.63.1.94.14.15.02.29.05.43.08.06.04.06.11.1.17-.2.18-.38.37-.6.51q-.74.45-1.63.59c-.37.05-.74.12-1.11.18-.08.01-.16.05-.24.08-.53.24-1.06.48-1.59.71-.41.18-.78.44-1.16.67-.37.22-.73.45-1.12.69.2.32.4.64.6.96.12-.07.22-.13.32-.19.47-.29.94-.58,1.41-.88.23-.14.48-.24.73-.35.39-.18.78-.34,1.16-.52.23-.11.48-.11.72-.16.51-.1,1.03-.18,1.55-.26.08-.01.15-.05.21-.09.3-.19.6-.37.91-.56.12.14.24.27.35.4.12.14.25.24.43.3.27.08.53.19.8.29.23.08.47.09.71.13.64.11,1.27.03,1.9-.06.54-.07,1.08-.13,1.62-.2.25-.03.49-.06.74-.09.06,0,.12-.04.18-.06.4-.19.81-.38,1.21-.57.07-.03.13-.07.17-.15.3-.5.6-1.01.91-1.51.03-.06.04-.11.04-.18-.11-.78-.21-1.57-.31-2.35,0-.05-.02-.1-.04-.14-.25-.58-.51-1.15-.76-1.74-.79-.18-1.58-.35-2.39-.54.21-1.13.42-2.25.62-3.36-.04-.05-.08-.05-.12-.05-.61-.05-1.23-.09-1.84-.13-.62-.05-1.24-.09-1.86-.15-.2-.02-.39.04-.59.07-.62.1-1.24.22-1.86.33-.09.02-.17.07-.25.12-.34.2-.68.41-1.03.62-.31-.21-.61-.03-.92,0-.18.02-.36.07-.54.1-.1.02-.2.02-.3,0-.16-.04-.31-.07-.5-.11.23-.26.29-.56.38-.85.03-.09.03-.16,0-.24-.11-.25-.21-.51-.31-.76-.03-.07-.07-.12-.12-.17-.32-.31-.71-.54-1.07-.8-.05-.04-.1-.04-.16-.04-.6.06-1.15-.13-1.69-.32-.31-.11-.61-.14-.93-.08-.13.03-.25.03-.38,0-.19-.06-.38.01-.57.05-.61.11-1.23.18-1.85.25-.6.07-1.2.18-1.74.42-.56.25-1.1.56-1.58.94-.24.19-.5.37-.76.55-.02-.04-.05-.07-.06-.1-.16-.38-.35-.74-.58-1.09-.14-.22-.19-.47-.26-.71-.22-.74-.45-1.49-.64-2.24-.03-.13-.05-.26-.05-.4,0-.8,0-1.6,0-2.4,0-.13-.03-.25-.1-.36-.1-.16-.19-.33-.3-.51.39-.15.77-.3,1.15-.44.06-.02.13-.01.19-.01.35,0,.7,0,1.04,0,.63.02,1.26-.02,1.89-.1.46-.05.9,0,1.35.03.47.04.93.1,1.4.12.61.03,1.23.07,1.84.11,1.2.07,2.39.07,3.59.04.74-.02,1.49-.02,2.23-.03.35,0,.69,0,1.04-.03.27-.02.53.06.8.09.32.04.63.11.94.14.28.03.55-.03.83-.03.53,0,1.06-.07,1.59-.04.53.03,1.06.08,1.59.1.37.01.74-.01,1.1-.02.3,0,.59-.02.89-.04.32-.02.64.05.95.09.51.08,1.03.09,1.54.12,1.07.05,2.14.04,3.21.03.62,0,1.23.05,1.85.08.58,1.01,1.15,1.99,1.72,2.98.71,1.22,1.46,2.41,2.18,3.62.32.53.66,1.04,1.03,1.54.4.56.74,1.16,1.04,1.77.31.62.63,1.23.95,1.85.1.19.15.4.21.6.4,1.4.87,2.78,1.27,4.17.4,1.39.82,2.78,1.3,4.14.1.3.27.56.41.83.26.5.52,1,.79,1.5.04.08.09.16.15.23.24.32.49.64.74.96.2.26.32.56.49.85-.25.07-.48.07-.71.09ZM54.64,57.17c.16.37.33.73.48,1.09.08.2.07.43.11.65.06.42.11.84.17,1.26.01.08,0,.14-.04.2-.17.28-.34.57-.52.85-.04.07-.09.12-.17.15-.26.12-.51.24-.76.37-.13.06-.26.06-.39.08-.65.08-1.29.14-1.94.23-.36.05-.73.11-1.1.11-.35,0-.7-.05-1.04-.15-.11-.03-.21-.08-.32-.11q-.43-.16-.73-.55c.11-.1.23-.21.35-.32-.18-.41-.35-.82-.54-1.24.59-.3,1.18-.6,1.76-.9-.11-.57-.21-1.13-.31-1.71-.76-.28-1.5-.59-2.24-.94,0-.03,0-.06.02-.08.25-.31.27-.69.36-1.05.01-.04.01-.09,0-.13-.05-.31-.11-.61-.16-.92-.01-.07-.06-.11-.11-.15-.07-.06-.16-.1-.21-.18.24-.2.51-.31.82-.36.52-.08,1.03-.18,1.55-.27.24-.04.48.01.72.02.49.03.97.07,1.46.11.15.01.31.03.49.04-.2,1.08-.4,2.14-.6,3.23.97.22,1.93.43,2.89.65ZM82.37,64.56c.33,0,.66-.05.99-.07.54-.03,1.09-.07,1.64-.03-.14.03-.28.07-.42.1-.27.06-.53.14-.78.27-.12.07-.24.12-.36.18-.33.18-.67.33-1.05.38-.2.03-.38.1-.57.17-.16.06-.33.08-.5.08-.29,0-.58,0-.87,0-.25,0-.5,0-.74-.06-.28-.06-.56-.04-.87-.05.33-.23.57-.5.82-.77.14-.15.3-.2.49-.2.22,0,.44,0,.66,0,.52,0,1.03,0,1.55,0ZM81.09,63.24c.13-.09.26-.17.45-.15.42.06.83-.04,1.24-.09.37-.05.74-.07,1.12-.1.8-.06,1.59-.11,2.39-.17.18-.01.35.02.53.03.47.03.93.06,1.42.09-.46.26-.92.38-1.42.34-.19-.01-.37.01-.55.04-.53.07-1.06.01-1.59.05-.59.04-1.19.05-1.78.11-.62.06-1.24.03-1.87.02-.03-.08,0-.13.06-.17ZM79.1,63.55c-.69.07-1.38.12-2.07.15-.05,0-.11,0-.18,0,.08-.24.21-.42.35-.59.04-.05.1-.07.17-.07.52.02,1.03-.02,1.55-.04.3,0,.61-.02.91-.03.03,0,.06,0,.1.04-.25.23-.43.49-.83.53ZM76.91,64.84c.26-.03.52-.03.78-.04.05,0,.1-.01.16.03-.27.18-.53.36-.79.54-.04.03-.09.04-.14.03-.51-.07-1.02-.14-1.56-.21.16-.12.29-.2.41-.3.14-.13.29-.15.47-.11.22.06.45.09.67.06ZM75.57,63.53c-.46-.13-.91-.1-1.4-.04.13-.18.24-.34.35-.5h1.39c-.08.21-.22.36-.34.53ZM75.13,66.34c-.37.17-.73.35-1.11.52-.13-.24-.25-.47-.39-.73.52.04,1,.13,1.49.21ZM73.45,64.91c-.16.06-.32,0-.47-.04-.05,0-.05-.08-.07-.15.35-.05.7-.06,1.06-.06-.17.08-.34.17-.51.24ZM75.08,68.27c-.13-.17-.24-.31-.35-.46.02-.07.09-.08.13-.1.68-.31,1.36-.63,2.02-.99.22-.12.45-.16.69-.13.51.07,1.02.06,1.53.06.12,0,.25.01.38.02-.03.09-.11.09-.16.12-.52.23-1.04.44-1.57.64-.47.18-.92.39-1.4.55-.41.14-.84.18-1.27.29ZM94.39,61.67c-.57.54-1.13,1.09-1.68,1.65-.05.05-.11.09-.17.12-.58.32-1.15.64-1.73.95-.09.05-.19.08-.3.11-.59.16-1.17.32-1.76.48-.42.11-.8.31-1.2.48-1.15.49-2.31.96-3.47,1.43-.68.27-1.34.56-2.01.86-.31.14-.63.21-.95.28-.76.15-1.53.29-2.29.44-.06.01-.12.03-.18.07-.54.35-1.16.51-1.77.68-.32.09-.64.18-.96.28-.05.02-.11.04-.17.03-.07-.04-.09-.12-.12-.2.11-.08.24-.08.36-.1.39-.06.76-.18,1.12-.33.94-.39,1.9-.72,2.83-1.15.71-.33,1.42-.66,2.15-.95.41-.16.83-.28,1.22-.48.18-.09.36-.17.53-.27.47-.28,1-.43,1.53-.54.2-.04.4-.09.6-.14.06-.02.12-.03.17-.08.76-.6,1.62-1.02,2.52-1.39.37-.15.73-.31,1.08-.49.11-.05.21-.12.29-.21.12-.11.23-.23.35-.34.07-.06.1-.13.1-.22,0-.28,0-.56,0-.84-.08-.05-.16-.03-.24-.04-.43-.02-.86-.03-1.29-.06-.81-.04-1.63-.07-2.44-.14-.25-.02-.51.01-.76.03-.57.04-1.14.09-1.71.12-.65.04-1.3.1-1.94.2-.39.06-.78,0-1.16-.05-.58-.06-1.16-.08-1.74-.05-.54.03-1.09.08-1.63.05-.71-.04-1.43-.02-2.14-.05-.47-.03-.93,0-1.4.02-.43.01-.86.03-1.29-.07-.17-.04-.35,0-.53,0-.07,0-.14,0-.23,0-.08-.27-.15-.53-.23-.79.08-.05.16-.02.23,0,.13.02.27.04.4.07.35.09.7.08,1.06.08,1.21,0,2.41,0,3.62,0,.26,0,.51.05.76.09.38.05.76.08,1.14.11,1.06.07,2.12.11,3.19.09.95-.02,1.9-.04,2.85-.04.4,0,.81.06,1.21.03.29-.02.58-.05.82-.25.07-.06.15-.04.22-.03.87.13,1.74.13,2.61.12.41,0,.82.06,1.23.1.67.07,1.33.18,2.01.16.47-.02.94,0,1.41,0,.01.08-.05.1-.08.14Z"/>
  <path class="cls-1" d="M83.32,13.75c-.15-.75-.34-1.49-.7-2.17-.14-.27-.24-.55-.32-.85-.02-.08-.05-.15-.1-.21-.48-.62-.96-1.24-1.45-1.86-.05-.06-.11-.1-.19-.12-.52-.13-1.04-.28-1.56-.41-.07-.02-.15-.03-.23-.03-.37.04-.75,0-1.1-.04-.06-.05-.1-.1-.15-.14-.81-.62-1.66-1.18-2.63-1.53-.11-.04-.21-.06-.33-.06-.29.01-.58.01-.87.02-.07,0-.14,0-.2.05-.24.15-.49.29-.66.53-.16.23-.34.43-.52.65-.03.04-.07.08-.08.12-.11.28-.26.54-.31.83-.05.26-.17.49-.28.73-.02,0-.04.02-.06.02-.75.28-1.52.47-2.24.84-.62.31-1.19.67-1.7,1.13-.1.09-.19.13-.32.12-.3,0-.59,0-.88,0-.03.07,0,.11,0,.16.23.72.45,1.44.68,2.16.03.1.08.2.14.28.14.19.27.39.42.6-.31.13-.62.05-.92.14-.3.09-.61.13-.9.22-.29.09-.57.21-.84.35-.06-.1-.15-.21-.14-.32.01-.2-.1-.31-.22-.44-.49-.51-.98-1.02-1.47-1.53-.06-.06-.12-.1-.22-.12-.69-.1-1.36-.28-2.06-.23-.1,0-.16-.03-.22-.1-.15-.19-.32-.38-.47-.58-.14-.18-.3-.34-.46-.49-.55-.51-1.19-.89-1.76-1.37-.04-.03-.08-.06-.13-.06-.32-.04-.63-.11-.95-.09-.16.01-.31.01-.47,0-.27,0-.52.03-.74.2-.16.12-.37.19-.52.33-.34.31-.64.64-.78,1.09-.02.06-.05.11-.08.17-.02.05-.04.09-.04.14-.01.42-.07.83-.05,1.25,0,.15.02.31,0,.46-.28.09-.54.18-.81.27-.09.03-.19.06-.27.13-.35.28-.71.56-1.07.84-.06.05-.09.1-.1.18-.05.31-.11.63-.16.94-.02.15-.08.28-.18.4-.04.04-.07.09-.11.13-.06.07-.08.14-.06.23.04.21.08.43.11.65.03.23.13.41.28.58.36.39.62.86.85,1.34.04.09.09.15.19.18.27.11.5.25.7.49.42.5.88.96,1.35,1.41.14.13.26.28.43.38.63.39,1.26.78,1.91,1.15.08.05.16.08.26.1.62.12,1.22.28,1.82.48-1.11.06-1.3.17-1.85,1.07-.27-.64-.71-1.03-1.42-1.06-.69-.03-1.22.24-1.59.84v-.7h-1.39v5.07h1.4v-.2c0-.8,0-1.6,0-2.4,0-.31.05-.62.21-.9.18-.31.46-.46.82-.43.34.03.55.25.66.56.07.19.09.38.09.58,0,.85,0,1.7,0,2.55,0,.08-.02.15.02.23h1.37c.03-.08.02-.15.02-.22,0-.8,0-1.6,0-2.4,0-.3.05-.59.2-.86.18-.32.46-.48.83-.44.35.03.56.26.66.57.06.19.09.39.09.58,0,.84,0,1.69,0,2.53,0,.08-.02.15.02.24h1.37c.03-.08.02-.15.02-.22,0-.88,0-1.76,0-2.64,0-.24,0-.48-.05-.72-.1-.6-.33-1.13-.89-1.45-.02,0-.03-.03-.06-.05.2,0,.38.06.55.11.22.05.43.09.65.03.04-.01.08,0,.13,0,.53-.05,1.06-.09,1.58-.16.51-.07,1.01-.18,1.52-.27.04,0,.08-.02.11-.05.24-.25.56-.36.84-.53.11-.06.18-.14.24-.25.19-.36.25-.76.42-1.13.1-.22.17-.44.17-.69-.01-.81,0-1.62,0-2.42,0-.15.02-.31-.04-.46.08-.06.15-.12.22-.18.11-.1.22-.15.38-.16.21,0,.42-.04.63-.08.5-.09,1-.11,1.5-.15.07,0,.14.02.19-.05.14.25.26.49.4.72.29.47.68.87,1.05,1.28.13.15.28.28.37.46.06.1.14.17.23.24.61.45,1.24.86,1.92,1.21.12.06.23.1.36.11.33.03.66.08.98.16.38.09.77.14,1.16.13.32-.01.64-.04.95-.08.22-.03.45,0,.67-.09.38-.14.76-.27,1.14-.4.19-.06.38-.17.58-.19.45-.04.9-.12,1.35-.17.34-.04.65-.1.92-.33.08-.07.18-.11.27-.17.22-.16.44-.33.62-.55.31-.36.55-.77.81-1.17.1-.16.21-.32.27-.51.09-.31.21-.62.25-.94.04-.34.14-.68.15-1.03.02-.7.02-1.4-.12-2.09ZM60.16,13.78c.1,0,.19.02.28.08.1.08.21.15.32.21.42.24.7.59.86,1.03.06.17.14.32.25.46.34.42.57.91.77,1.41.12.31.26.61.39.92.1.24.03.5-.21.68,0-.21-.04-.39-.08-.58-.05-.24-.15-.43-.31-.61-.17-.19-.33-.39-.46-.61-.19-.32-.44-.61-.68-.9-.05-.06-.11-.11-.18-.15-.67-.4-1.33-.8-2-1.2-.09-.06-.18-.09-.3-.06-.16.03-.32.04-.48.06-.08,0-.15.04-.21.09-.26.17-.49.38-.71.62-.07.74.12,1.43.33,2.11-.1-.07-.11-.07-.14-.15-.14-.34-.36-.62-.6-.89-.4-.46-.73-.97-.99-1.53-.07-.15-.15-.3-.24-.48.24-.09.47-.19.72-.23.51-.09,1.03-.17,1.55-.25.06,0,.11-.01.17-.01.65,0,1.3,0,1.96,0ZM55.56,11.83c.12-.23.29-.4.49-.54.21-.15.45-.22.72-.2.18.01.35-.02.53,0,.08.01.16.02.22.07.34.28.73.49,1.06.78.16.14.33.27.49.41.09.07.17.15.23.27-.45.05-.89-.02-1.32.04-.43.06-.86.15-1.3.2-.44.05-.84.2-1.29.34.02-.48-.05-.94.17-1.37ZM64.86,21.03c-.09.2-.17.41-.21.62-.02.11-.08.17-.17.22-.18.1-.38.19-.55.32-.03.02-.06.03-.1.04-.4.07-.81.13-1.21.21-.3.06-.62.07-.93.1-.23.02-.45.05-.68.07-.11.01-.21,0-.31-.02-.69-.15-1.37-.33-2.05-.54-.22-.07-.44-.1-.66-.15-.09-.02-.18-.05-.26-.1-.52-.31-1.03-.62-1.55-.92-.1-.06-.2-.14-.28-.22-.46-.46-.92-.92-1.37-1.4-.08-.09-.15-.19-.18-.31-.02-.11-.07-.18-.18-.21-.4-.11-.66-.37-.84-.74-.13-.28-.34-.5-.53-.74-.06-.08-.1-.15-.11-.25-.02-.09-.01-.17.06-.23.1-.09.13-.21.15-.34.03-.27.09-.53.13-.79.02-.1.06-.17.14-.23.19-.14.37-.29.55-.43.03-.03.07-.06.11-.07.27-.09.53-.18.81-.27.07.05.1.12.14.19.07.12.14.23.19.35.34.75.8,1.41,1.35,2.02.15.17.22.38.32.57.06.11.14.21.22.31.31.38.7.66,1.17.8.39.11.59.44.86.7.07.07.13.12.22.16.79.33,1.62.54,2.46.69.34.06.69.01,1.04,0,.06,0,.09-.04.12-.07.27-.26.55-.51.77-.82.11-.16.26-.28.39-.42.09-.09.15-.18.18-.31.06-.24.13-.48.21-.71.03-.09.02-.17-.01-.26-.3-.7-.6-1.4-.9-2.1-.09-.2-.23-.37-.36-.55-.18-.24-.32-.5-.42-.78-.07-.18-.15-.35-.3-.49.18-.02.29.05.4.16.33.35.66.7,1,1.04.07.07.1.15.14.24.27.59.52,1.19.75,1.8.1.27.22.54.34.8.05.12.08.24.08.37,0,.69,0,1.39,0,2.08,0,.22-.03.42-.12.62ZM73.42,8.03c.12-.12.22-.26.32-.39.08-.11.19-.14.33-.16.38-.04.72.06,1.05.24.26.14.52.28.77.44.06.04.14.07.19.15-1,.25-2.02.38-3.07.54.12-.31.2-.59.41-.81ZM72.76,10.1c.15-.07,4.17-.79,4.41-.79.11.23.34.34.55.47.39.23.71.52,1.01.86.36.39.62.83.85,1.3.5,1.04.96,2.09,1.42,3.14.06.15.09.3.1.45,0,.05,0,.1-.02.15-.16.34-.33.68-.57.96-.13.15-.33.23-.53.24-.42.02-.83.03-1.28-.06.05-.04.07-.07.1-.09.31-.27.32-.28.33-.68.02-.54-.06-1.07-.18-1.6-.04-.19-.17-.36-.26-.53-.22-.42-.44-.84-.66-1.26-.08-.16-.18-.3-.3-.44-.2-.23-.4-.46-.6-.69-.06-.07-.14-.12-.23-.14-.46-.11-.92-.22-1.39-.34-.24.19-.49.37-.74.56-.07.05-.13.11-.22.12-.22.01-.33.18-.42.34-.18.31-.18.65-.15.99.01.13.04.25.05.38-.13-.16-.26-.32-.33-.52-.11-.32-.26-.61-.42-.9-.08-.15-.14-.3-.18-.47-.09-.41-.22-.82-.34-1.22-.02-.08-.06-.16-.04-.24ZM68.24,16.11c-.45.02-.9.08-1.35.15-.19.03-.38.06-.57.06-.22,0-.41.07-.57.23-.04.04-.1.08-.16.13-.04-.1-.07-.17-.1-.25.09-.13.22-.21.36-.28.41-.19.85-.26,1.28-.38.02,0,.04,0,.06,0,.34.03.67-.03,1-.17.07.16.13.3.2.44-.05.07-.1.05-.15.06ZM82.02,17.33c-.05.13-.11.24-.18.36-.22.35-.44.71-.7,1.04-.23.28-.54.46-.84.64-.02.01-.04.02-.06.02-.46.03-.9.17-1.37.18-.2,0-.39.05-.58.12-.41.15-.82.3-1.23.45-.13.05-.26.08-.39.09-.42.04-.85.07-1.27.11-.34.03-.66-.08-.98-.14-.24-.05-.49-.09-.73-.11-.09,0-.18-.03-.26-.07-.4-.22-.81-.43-1.18-.71-.26-.19-.52-.38-.72-.65-.15-.19-.31-.36-.48-.54-.43-.45-.77-.96-1.04-1.52-.07-.15-.16-.3-.25-.44-.17-.28-.33-.58-.46-.88-.28-.64-.59-1.27-1.01-1.83-.05-.07-.09-.14-.11-.23-.07-.24-.15-.47-.22-.7.95-.93,1.75-1.46,3.69-2.04.05.03.05.08.07.12.14.51.29,1.02.4,1.54.02.08.05.16.1.23.19.33.39.66.49,1.03.03.09.09.17.14.26.33.53.67,1.07.96,1.62.06.11.13.19.25.25.37.19.68.46.96.76.25.28.56.49.92.63.31.12.62.24.88.46.17.14.37.19.58.23.11.02.22.03.33.08.53.25,1.09.33,1.67.34.3,0,.6.04.89-.01.28-.06.55-.22.82-.33.1-.04.16-.1.22-.18.35-.46.62-.96.88-1.47.03-.05.04-.12.11-.17-.09.5-.12,1-.29,1.47ZM82.27,15.62c-.02-.15-.04-.29-.06-.44-.02-.17-.06-.33-.13-.49-.31-.7-.62-1.41-.93-2.11-.01-.03-.02-.07-.04-.1-.34-.57-.56-1.2-.88-1.79-.07-.13-.14-.24-.24-.35-.26-.28-.52-.56-.76-.86-.03-.04-.07-.07-.08-.13.13,0,.24.06.36.07.38.04.64.24.85.55.22.33.49.64.74.96.09.12.17.24.2.39.05.24.17.45.28.66.3.58.5,1.19.6,1.84.02.12.04.24.07.35.11.48.06.96.03,1.43Z"/>
  <path class="cls-1" d="M52.3,23.61h-1.39v.66c-.14-.17-.23-.31-.36-.42-.35-.29-.76-.39-1.2-.38-.84.01-1.48.38-1.93,1.08-.43.68-.5,1.42-.34,2.19.21,1.02.94,1.77,1.96,1.91.72.1,1.35-.06,1.8-.69.01-.02.02-.04.06-.03.02.33.01.67-.11.99-.15.39-.42.65-.83.75-.67.17-1.24,0-1.73-.47-.07-.07-.13-.17-.23-.23-.3.27-.59.54-.9.82.3.33.59.61.96.81.9.48,1.83.49,2.77.13.64-.25,1.07-.72,1.31-1.37.14-.36.19-.74.2-1.12,0-1.47,0-2.93,0-4.4,0-.07.02-.14-.02-.22ZM50.14,27.33c-.88.28-1.65-.23-1.71-1.15-.02-.32.03-.63.21-.91.28-.42.69-.6,1.18-.55.49.05.84.31,1.03.77.08.19.11.38.1.57.02.53-.26,1.1-.81,1.27Z"/>
  <path class="cls-1" d="M18.78,30.49v2.72c-.36-.47-.57-.63-.94-.75-.35-.11-.7-.11-1.05-.04-.77.16-1.31.61-1.64,1.32-.31.66-.36,1.35-.2,2.05.27,1.23,1.3,2.09,2.59,1.93.39-.05.72-.2.98-.49.09-.09.15-.2.25-.33v.7h1.39v-7.11h-1.39ZM18.45,36.08c-.49.54-1.56.54-1.97-.24-.29-.55-.28-1.11.06-1.63.5-.77,1.68-.69,2.11.13.12.23.18.47.17.62,0,.49-.11.83-.37,1.12Z"/>
  <path class="cls-1" d="M42.9,23.61v.7c-.07-.09-.12-.15-.16-.21-.19-.25-.43-.43-.72-.53-.35-.13-.71-.13-1.07-.07-.85.15-1.42.67-1.74,1.45-.24.59-.28,1.21-.16,1.83.09.48.28.92.61,1.28.45.5,1.02.75,1.69.76.62,0,1.13-.22,1.48-.76.02-.03.03-.07.09-.06v.67h1.38v-5.07h-1.39ZM42.78,26.81c-.23.48-.62.71-1.1.71-.62-.02-1.05-.34-1.21-.89-.11-.37-.11-.74.03-1.1.2-.52.64-.8,1.21-.79.51.01.97.35,1.13.85.14.41.13.82-.06,1.22Z"/>
  <path class="cls-1" d="M10.84,26.61c.03-.2.05-.37.04-.54-.01-.2-.02-.41-.07-.61-.17-.74-.56-1.32-1.24-1.69-.5-.27-1.03-.34-1.58-.29-.79.07-1.43.41-1.9,1.06-.4.56-.53,1.2-.47,1.87.09.92.52,1.64,1.35,2.08.61.33,1.28.4,1.96.29.49-.08.93-.28,1.29-.64.19-.19.36-.39.47-.65-.42-.16-.82-.31-1.21-.46-.38.64-.97.71-1.54.57-.49-.12-.9-.64-.87-1h3.77ZM7.07,25.51c.06-.26.2-.47.4-.63.42-.34,1.11-.36,1.55-.05.23.16.36.38.4.68h-2.35Z"/>
  <path class="cls-1" d="M23.44,23.47c-1.43-.05-2.67,1.08-2.68,2.65,0,1.44,1.04,2.7,2.67,2.7,1.64,0,2.7-1.23,2.7-2.67,0-1.62-1.27-2.72-2.68-2.68ZM24.56,26.91c-.27.47-.78.69-1.37.6-.48-.07-.89-.45-1.02-.93-.04-.14-.06-.29-.05-.44,0-.47.15-.88.55-1.15.7-.49,1.85-.22,2.06.85.07.38.03.75-.17,1.08Z"/>
  <path class="cls-1" d="M25.57,32.38c-1.66,0-2.69,1.26-2.67,2.72.02,1.44,1.07,2.66,2.7,2.64,1.65-.01,2.67-1.27,2.66-2.69,0-1.46-1.08-2.69-2.7-2.68ZM26.83,35.54c-.19.62-.74.94-1.26.91-.62.03-1.24-.41-1.31-1.23-.03-.29.02-.58.15-.84.25-.5.75-.76,1.34-.7.52.05.97.44,1.1.96.08.3.08.6-.01.9Z"/>
  <path class="cls-1" d="M13.85,23.47c-1.47-.05-2.68,1.09-2.7,2.64-.01,1.47,1.05,2.71,2.68,2.71,1.65,0,2.69-1.26,2.69-2.68,0-1.59-1.25-2.71-2.67-2.67ZM14.72,27.19c-.22.22-.54.34-.89.33-.74,0-1.3-.55-1.32-1.29,0-.25.02-.49.12-.72.24-.52.7-.79,1.3-.76.52.03.97.37,1.13.88.18.58.1,1.12-.35,1.56Z"/>
</svg>