<?xml version="1.0" encoding="UTF-8"?>
<svg id="_레이어_1" data-name="레이어_1" xmlns="http://www.w3.org/2000/svg" viewBox="0 0 96.12 92.02">
  <defs>
    <style>
      .cls-1 {
        fill: #6881ba;
      }

      .cls-2 {
        fill: #85a97b;
      }

      .cls-3 {
        fill: #211915;
      }
    </style>
  </defs>
  <path class="cls-3" d="M35.69,70.14h24.13c.78,0,1.42.64,1.42,1.42v.82h-26.36v-1.43c0-.45.36-.81.81-.81Z"/>
  <path class="cls-3" d="M36.35,72.17h2.15v3.18c0,.59-.48,1.07-1.07,1.07h0c-.59,0-1.07-.48-1.07-1.07v-3.18h0Z"/>
  <path class="cls-3" d="M57.62,72.17h2.15v3.18c0,.59-.48,1.07-1.07,1.07h0c-.59,0-1.07-.48-1.07-1.07v-3.18h0Z"/>
  <rect class="cls-3" x="46.16" y="73.24" width="3.81" height="3.19"/>
  <path class="cls-3" d="M49.52,69.21h-2.93v-26.68l1.17-1.17h0l1.75,1.75v26.1Z"/>
  <path class="cls-3" d="M7,81.97v7.35c0,1.36-.44,2.7-2.91,2.7-.9,0-2.88-.29-2.88-2.41v-1.59h2.3v1.43c0,.43-.01,1,.6,1s.6-.57.6-1v-7.48h2.3Z"/>
  <path class="cls-3" d="M8.04,91.83v-9.86h4.76v1.5h-2.46v2.16h2.38v1.5h-2.38v3.21h2.46v1.5h-4.76Z"/>
  <path class="cls-3" d="M15.37,91.83h-1.84v-9.86h3.38l.97,7.01h.03l.97-7.01h3.31v9.86h-2.08v-8.42h-.03l-1.33,8.42h-2.02l-1.33-8.42h-.03v8.42Z"/>
  <path class="cls-3" d="M23.1,91.83v-9.86h2.3v9.86h-2.3Z"/>
  <path class="cls-3" d="M26.24,81.97h3.18l1.47,7.17h.03v-7.17h1.8v9.86h-2.95l-1.7-8.24h-.03v8.24h-1.8v-9.86Z"/>
  <path class="cls-3" d="M42.99,87.99v1.3c0,1.84-.98,2.73-2.92,2.73-1.52,0-2.89-.62-2.89-2.88v-4.49c0-2.26,1.37-2.88,2.89-2.88,1.68,0,2.92.5,2.92,2.63v1.08h-2.3v-1.36c0-.4-.12-.78-.62-.78-.47,0-.6.37-.6.78v5.54c0,.4.12.78.6.78.5,0,.62-.37.62-.78v-1.68h2.3Z"/>
  <path class="cls-3" d="M49.78,89.14c0,2.26-1.38,2.88-2.91,2.88s-2.91-.62-2.91-2.88v-4.49c0-2.26,1.38-2.88,2.91-2.88s2.91.62,2.91,2.88v4.49ZM46.26,89.67c0,.4.12.78.61.78s.61-.37.61-.78v-5.54c0-.4-.12-.78-.61-.78s-.61.37-.61.78v5.54Z"/>
  <path class="cls-3" d="M52.57,91.83h-1.84v-9.86h3.38l.97,7.01h.03l.97-7.01h3.31v9.86h-2.08v-8.42h-.03l-1.33,8.42h-2.02l-1.33-8.42h-.03v8.42Z"/>
  <path class="cls-3" d="M60.34,91.83v-9.86h2.81c1.83,0,3,.42,3,2.12v1.8c0,1.48-1.32,2.13-2.67,2.13h-.84v3.81h-2.3ZM62.64,86.61h.36c.8,0,.86-.44.86-1.61s-.06-1.62-.86-1.62h-.36v3.23Z"/>
  <path class="cls-3" d="M71.04,81.97l1.27,9.86h-2.28l-.26-2.42h-1.25l-.37,2.42h-1.94l1.68-9.86h3.16ZM69.6,87.91l-.4-4.39h-.03l-.4,4.39h.83Z"/>
  <path class="cls-3" d="M73.06,81.97h3.18l1.47,7.17h.03v-7.17h1.8v9.86h-2.95l-1.7-8.24h-.03v8.24h-1.8v-9.86Z"/>
  <path class="cls-3" d="M80.39,91.83v-9.86h2.3v9.86h-2.3Z"/>
  <path class="cls-3" d="M83.58,91.83v-9.86h4.76v1.5h-2.46v2.16h2.38v1.5h-2.38v3.21h2.46v1.5h-4.76Z"/>
  <path class="cls-3" d="M92.61,85.5v-1.38c0-.48-.15-.76-.61-.76-.5,0-.61.28-.61.76,0,1.66,3.52,2.15,3.52,5.19,0,1.86-1,2.71-2.92,2.71-1.47,0-2.89-.5-2.89-2.2v-1.83h2.3v1.7c0,.58.18.75.61.75.37,0,.61-.17.61-.75,0-2.23-3.52-2.27-3.52-5.45,0-1.79,1.18-2.46,2.95-2.46,1.55,0,2.87.53,2.87,2.17v1.55h-2.3Z"/>
  <path class="cls-3" d="M7.33,46.09l-.76.12c.59.5.87,1.13.84,1.89-.04,1.02-.4,1.81-1.07,2.39-.68.57-1.51.84-2.5.8-1.02-.04-1.84-.37-2.48-.99-.64-.62-.94-1.44-.9-2.47.03-.73.26-1.36.7-1.89.44-.53,1.02-.82,1.75-.87l-.06,1.42c-.36.07-.64.23-.85.47-.2.25-.31.55-.32.91-.02.42.08.78.29,1.07.21.29.48.5.81.63.33.13.69.2,1.1.22.62.02,1.15-.11,1.59-.39.44-.29.68-.74.7-1.36.02-.48-.09-.86-.32-1.15-.23-.28-.58-.46-1.05-.52l-.06,1.5-1.09-.04.11-2.84,3.59.14-.04.95Z"/>
  <path class="cls-3" d="M7.41,44.15l-6.54-1.16.64-3.59c.1-.58.36-1.02.77-1.32s.87-.4,1.38-.31c.81.14,1.3.59,1.45,1.35h.02c.25-.56.82-.79,1.7-.69.04,0,.13.02.28.03.15.02.27.03.36.04.09,0,.2.02.33.02.13,0,.25,0,.36-.02.11-.02.2-.04.27-.08l-.26,1.46c-.13.03-.29.04-.46.04-.18,0-.39-.02-.62-.04-.23-.03-.41-.04-.52-.04-.36-.01-.64.05-.82.19-.18.14-.31.39-.37.75l-.26,1.47,2.55.45-.26,1.47ZM2.25,41.72l1.84.33.29-1.6c.12-.67-.13-1.06-.75-1.17-.6-.11-.97.17-1.09.85l-.29,1.6Z"/>
  <path class="cls-3" d="M5.54,36.9c-.96-.33-1.66-.89-2.08-1.67-.43-.78-.48-1.65-.14-2.62.33-.97.91-1.62,1.73-1.97.82-.35,1.71-.36,2.67-.02.94.32,1.62.88,2.04,1.66.42.78.47,1.65.13,2.61-.33.96-.91,1.62-1.72,1.97-.81.35-1.69.37-2.63.04ZM6.03,35.49c.59.2,1.13.23,1.64.09.51-.15.86-.51,1.06-1.1.2-.59.15-1.09-.16-1.52-.31-.43-.75-.74-1.34-.95-.39-.13-.76-.2-1.11-.2-.35,0-.68.1-.98.3-.3.2-.53.49-.66.89-.14.4-.15.77-.03,1.11.12.34.31.62.59.84.28.22.61.4.99.53Z"/>
  <path class="cls-3" d="M8.99,20.53l5.05,4.68-.68,1.31-4.54-1.07v.02s3.48,3.09,3.48,3.09l-.69,1.34-6.72-1.47.69-1.32,4.5,1.13v-.02s-3.46-3.13-3.46-3.13l.64-1.24,4.59,1.08v-.02s-3.54-3.09-3.54-3.09l.67-1.3Z"/>
  <path class="cls-3" d="M17.74,20.2l-4.02-3.62-1.36,1.51-.91-.82,3.71-4.12.91.82-1.36,1.51,4.02,3.62-1,1.11Z"/>
  <path class="cls-3" d="M18.22,14.78c-.61-.81-.88-1.66-.8-2.55s.53-1.64,1.35-2.25c.82-.62,1.66-.84,2.54-.67s1.62.66,2.23,1.47c.6.79.85,1.63.77,2.51-.09.88-.54,1.63-1.35,2.24-.81.61-1.66.84-2.53.68-.87-.16-1.61-.64-2.2-1.43ZM19.41,13.89c.37.5.81.82,1.31.99.5.16,1,.06,1.49-.32s.73-.82.72-1.35-.21-1.04-.58-1.53c-.25-.33-.52-.59-.81-.78-.29-.19-.62-.3-.98-.3-.36,0-.71.12-1.05.37-.34.25-.55.56-.65.91-.09.35-.09.69.02,1.03.11.34.28.67.53.99Z"/>
  <path class="cls-3" d="M30.64,10.59l-.5-.58c-.12.76-.51,1.33-1.17,1.7-.89.5-1.75.61-2.6.33-.84-.28-1.51-.85-1.99-1.71-.5-.89-.65-1.76-.45-2.63.2-.87.74-1.55,1.64-2.05.63-.36,1.29-.49,1.98-.39.68.1,1.24.44,1.66,1.04l-1.24.7c-.25-.27-.53-.43-.85-.47-.32-.04-.63.02-.95.2-.37.21-.62.48-.76.81-.14.33-.18.67-.12,1.02.06.35.19.7.39,1.05.3.54.69.92,1.17,1.15.48.23.98.19,1.52-.11.42-.23.69-.53.81-.87.12-.35.09-.74-.1-1.16l-1.31.73-.53-.95,2.48-1.39,1.76,3.13-.83.46Z"/>
  <path class="cls-3" d="M32.37,9.71l-2.44-6.17,4.71-1.86.45,1.14-3.32,1.31.52,1.32,3.05-1.21.42,1.05-3.05,1.21.6,1.51,3.39-1.34.45,1.14-4.78,1.89Z"/>
  <path class="cls-3" d="M39.31,7.32l-1.06-5.31-1.99.4-.24-1.2,5.44-1.08.24,1.2-1.99.4,1.06,5.31-1.46.29Z"/>
  <path class="cls-3" d="M43.26,6.72l.05-6.64h1.49s-.02,2.56-.02,2.56l2.74.02.02-2.55h1.49s-.05,6.65-.05,6.65h-1.49s.02-2.87.02-2.87l-2.74-.02-.02,2.86h-1.49Z"/>
  <path class="cls-3" d="M50.23,6.6l.69-6.6,5.03.53-.13,1.22-3.55-.37-.15,1.41,3.26.34-.12,1.13-3.26-.34-.17,1.62,3.63.38-.13,1.22-5.11-.53Z"/>
  <path class="cls-3" d="M56.07,7.28l1.81-6.39,3.51.99c.57.16.98.46,1.24.9.25.44.31.91.17,1.4-.22.79-.72,1.23-1.48,1.31v.02c.53.3.7.89.52,1.76-.01.04-.03.13-.06.27-.03.15-.06.26-.07.35-.02.09-.04.2-.05.33-.02.13-.02.25-.02.36,0,.11.02.2.05.28l-1.43-.4c-.01-.13-.01-.29,0-.47.02-.18.06-.38.1-.61.05-.23.08-.4.09-.52.05-.36.01-.64-.1-.83-.12-.19-.35-.34-.71-.44l-1.43-.4-.71,2.5-1.43-.4ZM59,2.39l-.51,1.8,1.57.44c.66.19,1.07-.03,1.24-.63.17-.59-.08-.98-.73-1.16l-1.57-.44Z"/>
  <path class="cls-3" d="M64.73,10.28l2.93-5.96,1.33.66-2.93,5.96-1.33-.66Z"/>
  <path class="cls-3" d="M67.11,11.39l3.58-5.59,1.25.8-.02,5.27h.02s2.4-3.74,2.4-3.74l1.17.75-3.58,5.59-1.25-.8.03-5.26h-.02s-2.4,3.73-2.4,3.73l-1.17-.75Z"/>
  <path class="cls-3" d="M78.41,20.22l.42-.65c-.77.1-1.42-.11-1.97-.64-.73-.71-1.08-1.51-1.06-2.39.02-.89.38-1.69,1.07-2.4.71-.73,1.51-1.12,2.39-1.18.89-.06,1.7.27,2.43.98.52.51.83,1.1.94,1.78.1.68-.07,1.31-.52,1.89l-1.02-.99c.19-.32.26-.63.21-.95s-.2-.6-.46-.85c-.3-.29-.64-.46-1-.5-.36-.04-.7.02-1.01.18-.31.16-.61.38-.9.68-.43.45-.69.93-.77,1.45-.08.52.1,1,.54,1.43.34.33.7.51,1.07.52.37.02.73-.13,1.08-.43l-1.08-1.04.76-.78,2.04,1.98-2.5,2.58-.68-.66Z"/>
  <path class="cls-3" d="M82.23,19.45c.84-.58,1.7-.81,2.58-.69s1.61.6,2.19,1.44c.58.84.77,1.7.56,2.56s-.73,1.59-1.56,2.16c-.82.56-1.66.78-2.54.66-.88-.12-1.61-.6-2.18-1.44-.58-.84-.77-1.69-.57-2.55.2-.87.71-1.58,1.52-2.14ZM83.07,20.67c-.51.35-.86.77-1.04,1.27-.18.49-.1,1,.25,1.51.35.51.79.77,1.32.77.53,0,1.05-.17,1.56-.52.34-.23.61-.49.82-.77.21-.28.32-.61.34-.97.02-.36-.09-.72-.33-1.06-.24-.35-.53-.58-.88-.68-.35-.11-.69-.12-1.03-.02-.34.09-.68.25-1.01.49Z"/>
  <path class="cls-3" d="M83.58,27.47l6.06-2.71.6,1.35-2.92,4.39v.02s4.07-1.82,4.07-1.82l.57,1.27-6.06,2.71-.61-1.36,2.91-4.38v-.02s-4.07,1.81-4.07,1.81l-.57-1.27Z"/>
  <path class="cls-3" d="M87.74,38.56l.68-.36c-.72-.29-1.18-.8-1.4-1.53-.29-.98-.2-1.84.26-2.6.46-.76,1.16-1.28,2.11-1.56.98-.29,1.86-.24,2.67.15.8.39,1.35,1.07,1.64,2.05.21.7.18,1.37-.06,2.01-.25.65-.71,1.11-1.38,1.38l-.4-1.36c.32-.18.54-.42.65-.72.11-.3.12-.62.02-.97-.12-.41-.33-.71-.62-.92-.29-.21-.62-.32-.97-.34-.35-.02-.72.03-1.12.15-.59.17-1.06.47-1.38.88-.33.41-.4.92-.23,1.51.14.46.36.79.67.98.31.19.7.25,1.16.16l-.42-1.44,1.04-.31.8,2.73-3.44,1.01-.27-.91Z"/>
  <path class="cls-3" d="M95.23,43.45l-4.5.63c-1.49.21-2.33-.43-2.54-1.92-.09-.61.01-1.16.29-1.63.28-.48.76-.76,1.43-.86l.57-.08.19,1.33-.29.04c-.36.05-.62.15-.79.3-.17.15-.23.38-.19.71.02.15.06.27.13.37.06.1.13.17.2.21.07.04.16.07.28.08.12.01.21.01.28,0,.07,0,.17-.02.3-.04l4.44-.62.21,1.47Z"/>
  <path class="cls-3" d="M95.67,50.96l-4.12.18c-.88.04-1.55-.18-2.03-.66-.47-.48-.73-1.18-.77-2.11-.04-.93.15-1.65.57-2.16.42-.52,1.08-.79,1.96-.83l4.12-.18.07,1.49-4.12.18c-.44.02-.79.13-1.04.34-.25.2-.37.58-.34,1.12.02.52.15.88.39,1.07.24.2.61.29,1.11.26l4.12-.18.07,1.49Z"/>
  <path class="cls-1" d="M21.99,70.84c-.57,0-1.15-.03-1.71-.1-2.29-.27-3.89-1.02-5.43-1.73-1.54-.71-2.99-1.39-5.03-1.51-2.79-.17-5.72.78-8.68,2.83-.33.23-.78.14-1.01-.19s-.14-.78.19-1.01c3.24-2.23,6.46-3.27,9.59-3.08,2.31.14,3.96.9,5.55,1.64,1.44.67,2.94,1.36,5,1.61,2.85.34,5.82-.27,8.82-1.83.36-.18.79-.04.97.31.18.35.04.79-.31.97-2.68,1.39-5.35,2.08-7.95,2.08Z"/>
  <path class="cls-1" d="M21.99,75.35c-.57,0-1.15-.03-1.71-.1-2.29-.27-3.89-1.02-5.43-1.73-1.54-.71-2.99-1.39-5.03-1.51-2.8-.17-5.72.78-8.68,2.83-.33.23-.78.14-1.01-.19-.23-.33-.14-.78.19-1.01,3.24-2.23,6.47-3.27,9.59-3.08,2.31.14,3.96.9,5.55,1.64,1.44.67,2.94,1.36,5,1.61,2.85.34,5.82-.27,8.82-1.83.36-.18.79-.04.97.31.18.35.04.79-.31.97-2.68,1.39-5.34,2.08-7.95,2.08Z"/>
  <path class="cls-1" d="M87.78,70.84c-.57,0-1.15-.03-1.71-.1-2.29-.27-3.89-1.02-5.43-1.73-1.54-.71-2.99-1.39-5.03-1.51-2.8-.17-5.72.78-8.68,2.83-.33.23-.78.14-1.01-.19s-.14-.78.19-1.01c3.24-2.23,6.47-3.27,9.59-3.08,2.31.14,3.96.9,5.55,1.64,1.44.67,2.94,1.36,5,1.61,2.85.34,5.82-.27,8.82-1.83.36-.18.79-.04.97.31.18.35.04.79-.31.97-2.68,1.39-5.34,2.08-7.95,2.08Z"/>
  <path class="cls-1" d="M87.78,75.35c-.57,0-1.15-.03-1.71-.1-2.29-.27-3.89-1.02-5.43-1.73-1.54-.71-2.99-1.39-5.03-1.51-2.8-.17-5.72.78-8.68,2.83-.33.23-.78.14-1.01-.19-.23-.33-.14-.78.19-1.01,3.24-2.23,6.46-3.27,9.59-3.08,2.31.14,3.96.9,5.55,1.64,1.44.67,2.94,1.36,5,1.61,2.85.34,5.82-.27,8.82-1.83.36-.18.79-.04.97.31.18.35.04.79-.31.97-2.68,1.39-5.34,2.08-7.95,2.08Z"/>
  <g>
    <path class="cls-2" d="M18.58,62.83c-.61,0-1.11-.48-1.13-1.09-.42-11.14,1-21.68,3.98-29.7,2.97-7.98,7.3-13,12.19-14.15.25-.06.48-.11.68-.17,1.53-.38,2.28-.53,5.53-.53.63,0,1.14.51,1.14,1.14s-.51,1.14-1.14,1.14c-3.11,0-3.7.15-4.99.46-.21.05-.45.11-.71.17-4.12.97-7.88,5.49-10.58,12.73-2.88,7.74-4.25,17.97-3.84,28.82.02.63-.47,1.15-1.09,1.18-.01,0-.03,0-.04,0Z"/>
    <path class="cls-2" d="M24.03,62.83c-.61,0-1.11-.48-1.13-1.09-.42-11.14,1-21.68,3.98-29.7,2.97-7.98,7.3-13,12.19-14.15.25-.06.48-.11.68-.17,1.53-.38,2.28-.53,5.53-.53.63,0,1.14.51,1.14,1.14s-.51,1.14-1.14,1.14c-3.11,0-3.7.15-4.99.46-.21.05-.45.11-.71.17-4.12.97-7.88,5.49-10.58,12.73-2.88,7.74-4.25,17.97-3.84,28.82.02.63-.47,1.15-1.09,1.18-.01,0-.03,0-.04,0Z"/>
    <path class="cls-2" d="M29.77,62.83c-.61,0-1.11-.48-1.13-1.09-.42-11.14,1-21.68,3.98-29.7,2.97-7.98,7.3-13,12.19-14.15.25-.06.48-.11.68-.17,1.53-.38,2.28-.53,5.53-.53.63,0,1.14.51,1.14,1.14s-.51,1.14-1.14,1.14c-3.11,0-3.7.15-4.99.46-.21.05-.45.11-.71.17-4.12.97-7.88,5.49-10.58,12.73-2.88,7.74-4.25,17.97-3.84,28.82.02.63-.47,1.15-1.09,1.18-.01,0-.03,0-.04,0Z"/>
    <path class="cls-2" d="M35.33,62.83c-.61,0-1.11-.48-1.13-1.09-.42-11.14,1-21.68,3.98-29.7,2.97-7.98,7.3-13,12.19-14.15.25-.06.48-.11.68-.17,1.53-.38,2.28-.53,5.53-.53.63,0,1.14.51,1.14,1.14s-.51,1.14-1.14,1.14c-3.11,0-3.7.15-4.99.46-.21.05-.45.11-.71.17-4.12.97-7.88,5.49-10.58,12.73-2.88,7.74-4.25,17.97-3.84,28.82.02.63-.47,1.15-1.09,1.18-.01,0-.03,0-.04,0Z"/>
    <path class="cls-2" d="M40.54,63.36c-.61,0-1.11-.48-1.13-1.09-.42-11.14,1-21.68,3.98-29.7,2.97-7.98,7.3-13,12.19-14.15.25-.06.48-.11.68-.17,1.53-.38,2.28-.53,5.53-.53.63,0,1.14.51,1.14,1.14s-.51,1.14-1.14,1.14c-3.11,0-3.7.15-4.99.46-.21.05-.45.11-.71.17-4.12.97-7.88,5.49-10.58,12.73-2.88,7.74-4.25,17.97-3.84,28.82.02.63-.47,1.15-1.09,1.18-.01,0-.03,0-.04,0Z"/>
  </g>
  <path class="cls-2" d="M55.56,63.36s-.03,0-.04,0c-.63-.02-1.12-.55-1.09-1.18.41-10.85-.96-21.08-3.84-28.82-2.7-7.24-6.46-11.76-10.58-12.73-.26-.06-.49-.12-.71-.17-1.29-.32-1.88-.46-4.99-.46-.63,0-1.14-.51-1.14-1.14s.51-1.14,1.14-1.14c3.25,0,4,.15,5.53.53.21.05.43.11.68.17,4.89,1.15,9.22,6.17,12.19,14.15,2.99,8.01,4.4,18.56,3.98,29.7-.02.61-.53,1.09-1.13,1.09Z"/>
  <path class="cls-2" d="M77.54,62.83s-.03,0-.04,0c-.63-.02-1.12-.55-1.09-1.18.41-10.85-.96-21.08-3.84-28.82-2.7-7.24-6.46-11.76-10.58-12.73-.26-.06-.49-.12-.71-.17-1.29-.32-1.88-.46-4.99-.46-.63,0-1.14-.51-1.14-1.14s.51-1.14,1.14-1.14c3.25,0,4,.15,5.53.53.21.05.43.11.68.17,4.89,1.15,9.22,6.17,12.19,14.15,2.99,8.01,4.4,18.56,3.98,29.7-.02.61-.53,1.09-1.13,1.09Z"/>
  <path class="cls-2" d="M72.09,62.83s-.03,0-.04,0c-.63-.02-1.12-.55-1.09-1.18.41-10.85-.96-21.08-3.84-28.82-2.7-7.24-6.46-11.76-10.58-12.73-.26-.06-.49-.12-.71-.17-1.29-.32-1.88-.46-4.99-.46-.63,0-1.14-.51-1.14-1.14s.51-1.14,1.14-1.14c3.25,0,4,.15,5.53.53.21.05.43.11.68.17,4.89,1.15,9.22,6.17,12.19,14.15,2.99,8.01,4.4,18.56,3.98,29.7-.02.61-.53,1.09-1.13,1.09Z"/>
  <path class="cls-2" d="M66.35,62.83s-.03,0-.04,0c-.63-.02-1.12-.55-1.09-1.18.41-10.85-.96-21.08-3.84-28.82-2.7-7.24-6.46-11.76-10.58-12.73-.26-.06-.49-.12-.71-.17-1.29-.32-1.88-.46-4.99-.46-.63,0-1.14-.51-1.14-1.14s.51-1.14,1.14-1.14c3.25,0,4,.15,5.53.53.21.05.43.11.68.17,4.89,1.15,9.22,6.17,12.19,14.15,2.99,8.01,4.4,18.56,3.98,29.7-.02.61-.53,1.09-1.13,1.09Z"/>
  <path class="cls-2" d="M60.79,62.83s-.03,0-.04,0c-.63-.02-1.12-.55-1.09-1.18.41-10.85-.96-21.08-3.84-28.82-2.7-7.24-6.46-11.76-10.58-12.73-.26-.06-.49-.12-.71-.17-1.29-.32-1.88-.46-4.99-.46-.63,0-1.14-.51-1.14-1.14s.51-1.14,1.14-1.14c3.25,0,4,.15,5.53.53.21.05.43.11.68.17,4.89,1.15,9.22,6.17,12.19,14.15,2.99,8.01,4.4,18.56,3.98,29.7-.02.61-.53,1.09-1.13,1.09Z"/>
</svg>