<?xml version="1.0" encoding="UTF-8"?>
<svg id="_레이어_1" data-name="레이어_1" xmlns="http://www.w3.org/2000/svg" viewBox="0 0 117.91 73.02">
  <defs>
    <style>
      .cls-1 {
        fill: #364285;
      }
    </style>
  </defs>
  <rect class="cls-1" x="24.85" y="0" width="25.28" height="55.03" rx="12.64" ry="12.64"/>
  <path class="cls-1" d="M64.64,0h-7.48c-2.73,0-4.94,2.21-4.94,4.94v45.14c0,2.74,2.22,4.95,4.95,4.95h7.47c15.2,0,27.52-12.32,27.52-27.52h0c0-15.2-12.32-27.52-27.52-27.52ZM68.66,38.05c0,2.31-1.87,4.19-4.19,4.19h0c-2.31,0-4.19-1.87-4.19-4.19v-20.06c0-2.31,1.87-4.19,4.19-4.19h0c2.31,0,4.19,1.87,4.19,4.19v20.06ZM80.58,26.41c0,1.94-1.57,3.51-3.51,3.51h-2.86c-1.94,0-3.51-1.57-3.51-3.51h0c0-1.94,1.57-3.51,3.51-3.51h2.86c1.94,0,3.51,1.57,3.51,3.51h0ZM80.58,17.3c0,1.94-1.57,3.51-3.51,3.51h-2.86c-1.94,0-3.51-1.57-3.51-3.51h0c0-1.94,1.57-3.51,3.51-3.51h2.86c1.94,0,3.51,1.57,3.51,3.51h0Z"/>
  <path class="cls-1" d="M0,62.58h3.93c3.61,0,5.72,2.07,5.72,5.02v.03c0,2.95-2.13,5.11-5.77,5.11H0v-10.16ZM2.81,65.06v5.18h1.15c1.7,0,2.81-.93,2.81-2.57v-.03c0-1.64-1.12-2.58-2.81-2.58h-1.15Z"/>
  <path class="cls-1" d="M11.19,62.58h2.81v10.16h-2.81v-10.16Z"/>
  <path class="cls-1" d="M19.37,62.51h2.71l4.32,10.23h-3.02l-.73-1.83h-3.93l-.73,1.83h-2.95l4.31-10.23ZM21.83,68.72l-1.13-2.87-1.15,2.87h2.28Z"/>
  <path class="cls-1" d="M27.39,62.58h2.81v7.69h4.92v2.47h-7.73v-10.16Z"/>
  <path class="cls-1" d="M36.34,62.58h8.13v2.47h-5.31v1.73h4.8v2.34h-4.8v3.63h-2.81v-10.16Z"/>
  <path class="cls-1" d="M48.11,62.51h2.71l4.32,10.23h-3.02l-.73-1.83h-3.93l-.73,1.83h-2.95l4.31-10.23ZM50.57,68.72l-1.13-2.87-1.15,2.87h2.28Z"/>
  <path class="cls-1" d="M55.14,67.69v-.03c0-2.96,2.26-5.28,5.34-5.28,2.06,0,3.42.87,4.31,2.1l-2.12,1.64c-.58-.71-1.23-1.19-2.22-1.19-1.42,0-2.42,1.22-2.42,2.7v.03c0,1.52,1,2.71,2.42,2.71,1.06,0,1.67-.49,2.29-1.23l2.12,1.51c-.97,1.32-2.25,2.29-4.48,2.29-2.9,0-5.24-2.22-5.24-5.25Z"/>
  <path class="cls-1" d="M68.56,65.04h-3.03v-2.47h8.89v2.47h-3.05v7.69h-2.81v-7.69Z"/>
  <path class="cls-1" d="M74.89,67.69v-.03c0-2.92,2.35-5.28,5.48-5.28s5.46,2.35,5.46,5.25v.03c0,2.92-2.35,5.28-5.48,5.28s-5.46-2.35-5.46-5.25ZM82.94,67.69v-.03c0-1.48-1.04-2.74-2.6-2.74s-2.58,1.25-2.58,2.71v.03c0,1.45,1.06,2.74,2.61,2.74s2.57-1.25,2.57-2.71Z"/>
  <path class="cls-1" d="M87.28,62.58h4.8c1.57,0,2.63.41,3.31,1.09.59.59.9,1.39.9,2.37v.03c0,1.57-.81,2.6-2.09,3.13l2.42,3.54h-3.24l-2.05-3.08h-1.25v3.08h-2.81v-10.16ZM91.97,67.45c.94,0,1.51-.46,1.51-1.2v-.03c0-.81-.59-1.22-1.52-1.22h-1.86v2.45h1.87Z"/>
  <path class="cls-1" d="M100.29,68.93l-3.87-6.36h3.21l2.09,3.7,2.1-3.7h3.15l-3.86,6.31v3.84h-2.81v-3.8Z"/>
  <path class="cls-1" d="M112.75,73.02c-2.84,0-5.16-2.31-5.16-5.16s2.31-5.16,5.16-5.16,5.16,2.31,5.16,5.16-2.31,5.16-5.16,5.16ZM112.75,63.81c-2.24,0-4.06,1.82-4.06,4.06s1.82,4.06,4.06,4.06,4.06-1.82,4.06-4.06-1.82-4.06-4.06-4.06Z"/>
  <path class="cls-1" d="M113.91,70.24l-1.22-1.73h-1.09v1.73h-.87v-4.96h2.21c1.14,0,1.84.6,1.84,1.58,0,.82-.49,1.32-1.19,1.51l1.34,1.88h-1.03ZM112.87,66.07h-1.27v1.67h1.28c.62,0,1.02-.33,1.02-.84,0-.55-.38-.83-1.03-.83Z"/>
</svg>